<?xml version="1.0" encoding="utf-8"?>
<!-- Generator: Adobe Illustrator 18.0.0, SVG Export Plug-In . SVG Version: 6.00 Build 0)  -->
<!DOCTYPE svg PUBLIC "-//W3C//DTD SVG 1.1//EN" "http://www.w3.org/Graphics/SVG/1.1/DTD/svg11.dtd">
<svg version="1.1" id="Layer_1" xmlns="http://www.w3.org/2000/svg" xmlns:xlink="http://www.w3.org/1999/xlink" x="0px" y="0px"
	 width="841.9px" height="595.3px" viewBox="0 0 841.9 595.3" enable-background="new 0 0 841.9 595.3" xml:space="preserve">
<g>
	<radialGradient id="SVGID_1_" cx="763.1204" cy="67.6193" r="930.7092" gradientUnits="userSpaceOnUse">
		<stop  offset="0" style="stop-color:#44C8F5"/>
		<stop  offset="0.5" style="stop-color:#00AEEF"/>
		<stop  offset="1" style="stop-color:#008BBF"/>
	</radialGradient>
	<rect fill="url(#SVGID_1_)" width="841.9" height="595.3"/>
	<g>
		<path fill="#FFFFFF" d="M117,595.3c0,0,85.5-63.5,155-33.6c0,0,18.3-57.6,78.1-38.3c0,0-44.8-55.8,55.5-86.6
			s117.4,37.5,117.4,37.5s38.4-36.3,49.1,10.7c0,0,79-25.6,66.2,64c0,0,52.9-20.5,74.5,46.3H117z"/>
		<g>
			<path fill="#FFFFFF" d="M250.6,204.3H40.4c0,0-1.4-27.8,26.1-23.7c0,0-2.7-26.1,17.9-17.9c0,0-2.7-37.1,38.5-26.1
				c0,0,9.6-41.2,53.6-24.7s47.9,44.2,47.9,44.2s11.1-13.5,31.8,0c20.6,13.5,12.4,28.6,12.4,28.6s22-10.3,82.4,19.6H250.6z"/>
			<path fill="#FFFFFF" d="M564.3,286.6c0,0,34-25.3,61.7-13.4c0,0,7.3-22.9,31.1-15.3c0,0-17.8-22.2,22.1-34.5
				c39.9-12.3,46.7,14.9,46.7,14.9s15.3-14.4,19.5,4.2c0,0,31.4-10.2,26.3,25.5c0,0,21.1-8.2,29.7,18.4H564.3z"/>
		</g>
	</g>
	<g>
		<rect x="149.1" y="355" fill="#FFFFFF" width="543.7" height="3.3"/>
		<g>
			<path fill="#1C3968" d="M539.4,234.5c0,0-11.4,1.2-19.7,3.6L515,219L539.4,234.5z"/>
			<path fill="#E1F4FD" d="M464.9,169l-31.7,22.1l-31.1,10.7l1.2,5.3l34.9-2.5l24.2-9.6l21,39.5l-25.6,47.4l29.2,66.7l6.1-2
				c0,0,1-40.1-18.6-59.7l24.2-28.1l24.2,41l35,46.8l4.9-4c0,0-8.1-37.8-31.3-52.8l-15.2-66.4l-10.4-35.1l27.1,7.8l22.4,18.5
				l4.6-4.3l-24.2-26l-29.2-19.2l-26.4-2.5L464.9,169z"/>
			<path fill="#224B87" d="M402.1,201.8l1.2,5.3l34.9-2.5l24.2-9.6l21,39.5c-10-21.7-18.5-65.5-18.5-65.5l-31.7,22.1L402.1,201.8z"
				/>
			<path fill="#224B87" d="M480.2,162.6c0,0,24.9,53.8,36.5,62.1c11.6,8.4,22.7,9.8,22.7,9.8l-33.5-46.3l27.1,7.8l22.4,18.5l4.6-4.3
				l-24.2-26l-29.2-19.2L480.2,162.6z"/>
			<polygon fill="#FEDBB4" points="475.4,155.6 480.2,162.6 464.9,169 464.9,159.7 			"/>
			<path fill="#FBBD8E" d="M475.4,155.6c0,0-1.7,8.6-10.5,13.4v-9.3L475.4,155.6z"/>
			<path fill="#FEDBB4" d="M454.9,140.5v16.6h3v8.2c0,0,9.1,0,17.5-9.6l1.9-20.3c0,0-4.1-3.6-14.2-3.6c-10.2,0-13.9,0-13.9,0
				S449,138,454.9,140.5z"/>
			<path fill="#1C3968" d="M463.1,131.8c-10.2,0-13.9,0-13.9,0s-0.1,6.2,5.7,8.7l8.4,0.9l3.9,7.1c0,0,1.9-4.9,5.4-2.3
				s-2.3,6.9-2.3,6.9l5.1,2.5l1.9-20.3C477.3,135.3,473.2,131.8,463.1,131.8z"/>
			<polygon fill="#EF4136" points="471.9,166.1 471.3,170.1 490.3,211.4 490.3,219 483.4,215.4 470.2,170.6 466.9,168.1 			"/>
			<polygon fill="#1C3968" points="562.7,342.5 557.9,346.5 555.6,367.5 568.1,348 			"/>
			<polygon fill="#1C3968" points="493.2,346.6 487,348.6 477.2,367.5 497,353.4 			"/>
			<g>
				<path fill="#FBBD8E" d="M391.8,201.4c0,0-5.9,2.3-8.9,6.4c0,0,3.9,2.2,8.3-0.3c4.4-2.5,8.2-1.3,8.2-1.3S398.8,201.7,391.8,201.4
					z"/>
				<path fill="#FEDBB4" d="M402.1,201.8c0,0-5.7-2.4-10-2.1c-4.3,0.2-14.4,7.2-12.6,7.4c2.1,0.2,10.2-3.8,14-2.8
					c3.8,0.9,5.7,1.7,3.9,4.9c-1.8,3.3-0.4,5.8-0.4,5.8l6.2-7.7L402.1,201.8z"/>
			</g>
			<path fill="#FEDBB4" d="M555.4,214.6c0,0-0.1,8.1,3.9,12.1c0,0,1.2-1.5,0.3-5c0,0,6.2,8,7.9,8.3c1.8,0.3,1.8-15.5-7.6-19.7
				L555.4,214.6z"/>
			<path fill="#224B87" d="M474.5,286.9l24.2-28.1l24.2,41l35,46.8l4.9-4c0,0-8.1-37.8-31.3-52.8l-14.8-65
				c-1.4,0.8-20.5,11.8-33.2,9.8l-25.6,47.4l29.2,66.7l6.1-2C493.2,346.6,494.1,306.5,474.5,286.9z"/>
			<polygon fill="#FFFFFF" points="469.3,167.1 474,169.7 480.2,162.6 478,159.4 			"/>
			<polygon fill="#FFFFFF" points="469.3,167.1 468,171.8 464.9,169 464.9,166.1 			"/>
			<path fill="#1C3968" d="M496,254.3l-25.9,32.9c0,0,20.3,16.1,23,59.4c0,0,1-40.1-18.6-59.7l24.2-28.1L496,254.3z"/>
			<polygon fill="#1C3968" points="462.4,195 483.4,234.5 463.7,190.5 438.2,201.8 403.3,207.1 438.2,204.6 			"/>
			<polygon fill="#1C3968" points="480.2,162.6 506.8,168.1 534.9,186.3 560,210.3 535.8,184.3 506.6,165.1 			"/>
			<path fill="#1C3968" d="M531.5,289.7l-14.8-65c-0.4,0.2-2.2,1.3-4.9,2.6l17.5,65.3c0,0,19.8,10.2,33.4,49.8
				C562.7,342.5,554.6,304.7,531.5,289.7z"/>
			<polygon fill="#1C3968" points="505.9,188.2 501.3,187.5 539.4,234.5 			"/>
		</g>
		<g>
			<polygon fill="#1C3968" points="0,595.3 0,345 135.8,332 162.4,352 208.3,360 212.9,376.3 245,388.1 223,553 205.5,568 
				201,595.3 			"/>
			<polygon fill="#224B87" points="135.8,332 143.1,430 156,492 162.4,352 			"/>
			<polygon fill="#224B87" points="208.3,360 200,486 212.9,376.3 			"/>
			<polygon fill="#224B87" points="223,553 200,565 191.3,595.3 201,595.3 205.5,568 			"/>
		</g>
		<g>
			<polygon fill="#1C3968" points="841.9,595.3 841.9,345 706.1,332 679.5,352 633.6,360 629,376.3 596.9,388.1 618.9,553 
				636.3,568 640.9,595.3 			"/>
			<polygon fill="#224B87" points="706.1,332 698.7,430 685.9,492 679.5,352 			"/>
			<polygon fill="#224B87" points="633.6,360 641.9,486 629,376.3 			"/>
			<polygon fill="#224B87" points="618.9,553 641.9,565 650.6,595.3 640.9,595.3 636.3,568 			"/>
		</g>
	</g>
</g>
</svg>
